<svg id="SvgjsSvg1001" width="288" height="288" xmlns="http://www.w3.org/2000/svg" version="1.1" xmlns:xlink="http://www.w3.org/1999/xlink" xmlns:svgjs="http://svgjs.com/svgjs"><defs id="SvgjsDefs1002"></defs><g id="SvgjsG1008" transform="matrix(1,0,0,1,0,0)"><svg xmlns="http://www.w3.org/2000/svg" data-name="Layer 1" viewBox="0 0 500 500" width="288" height="288"><path d="M310.59 340.75a2 2 0 01-1.88-1.32L294 298.38a2 2 0 113.76-1.35l14.75 41.05a2 2 0 01-1.21 2.55A1.76 1.76 0 01310.59 340.75zM297.56 339.29A2 2 0 01295.7 338l-15.2-39.59a2 2 0 113.73-1.43l15.2 39.58a2 2 0 01-1.87 2.72z" fill="#ffffff" class="color000 svgShape"></path><path d="M303.87,359.11a11.91,11.91,0,1,1,11.91-11.91A11.92,11.92,0,0,1,303.87,359.11Zm0-19.82a7.91,7.91,0,1,0,7.91,7.91A7.92,7.92,0,0,0,303.87,339.29Z" fill="#ffffff" class="color000 svgShape"></path><path d="M277.08 394a2 2 0 01-1-.28 2 2 0 01-.69-2.74L297 354.63a2 2 0 113.43 2.05L278.8 393A2 2 0 01277.08 394zM394.6 394H369a2 2 0 01-2-2V111.21a2 2 0 012-2H394.6a2 2 0 012 2V392A2 2 0 01394.6 394zM371 390H392.6V113.21H371zM262.82 205.17a2 2 0 01-2-2v-90H239.18v90a2 2 0 11-4 0v-92a2 2 0 012-2h25.64a2 2 0 012 2v92A2 2 0 01262.82 205.17zM131 394H105.4a2 2 0 01-2-2V111.21a2 2 0 012-2H131a2 2 0 012 2V392A2 2 0 01131 394zm-23.64-4H129V113.21H107.4z" fill="#ffffff" class="color000 svgShape"></path><path d="M265.49,205.17H250a2,2,0,0,1,0-4h15.2l103.19-31a2,2,0,1,1,1.15,3.83L266.07,205.08A1.9,1.9,0,0,1,265.49,205.17Z" fill="#ffffff" class="color000 svgShape"></path><path d="M250 205.17H234.51a1.9 1.9 0 01-.58-.09L130.46 174a2 2 0 011.15-3.83l103.19 31H250a2 2 0 010 4zM265.49 226.72a2 2 0 01-1.91-1.42 2 2 0 011.33-2.49l103.48-31.13a2 2 0 111.15 3.83L266.07 226.64A2 2 0 01265.49 226.72zM204.16 299.7H204L130.88 294a2 2 0 01.31-4l73.12 5.73a2 2 0 01-.15 4zM295.84 299.7H219.28a2 2 0 010-4h76.48L368.81 290a2 2 0 01.31 4L296 299.7z" fill="#ffffff" class="color000 svgShape"></path><path d="M351.93 227.93a2 2 0 01-2-2V198.72a2 2 0 114 0v27.21A2 2 0 01351.93 227.93zM189.41 340.75a1.76 1.76 0 01-.67-.12 2 2 0 01-1.21-2.55L202.27 297a2.09 2.09 0 01.26-.49l30.36-42.23a2 2 0 013.62 1.17v19.85a2 2 0 01-.35 1.13l-18.75 27.41L204.3 338a2 2 0 11-3.73-1.44l13.19-34.35a2.27 2.27 0 01.21-.41l18.54-27.1v-13l-26.57 36.95L191.3 339.43A2 2 0 01189.41 340.75z" fill="#ffffff" class="color000 svgShape"></path><path d="M196.13,359.11A11.91,11.91,0,1,1,208,347.2,11.92,11.92,0,0,1,196.13,359.11Zm0-19.82A7.91,7.91,0,1,0,204,347.2,7.92,7.92,0,0,0,196.13,339.29Z" fill="#ffffff" class="color000 svgShape"></path><path d="M222.92 394a2 2 0 01-1.72-1l-21.64-36.31a2 2 0 113.43-2.05l21.65 36.31a2 2 0 01-.69 2.74A2 2 0 01222.92 394zM258 332.77H242a2 2 0 01-2-2V297.7a2 2 0 012-2h16a2 2 0 012 2v33.07A2 2 0 01258 332.77zm-14-4h12V299.7H244z" fill="#ffffff" class="color000 svgShape"></path><path d="M255.22,345.47H244.78a6.52,6.52,0,0,1-6.52-6.51v-3.68a6.52,6.52,0,0,1,6.52-6.51h10.44a6.52,6.52,0,0,1,6.52,6.51V339A6.52,6.52,0,0,1,255.22,345.47Zm-10.44-12.7a2.52,2.52,0,0,0-2.52,2.51V339a2.52,2.52,0,0,0,2.52,2.51h10.44a2.52,2.52,0,0,0,2.52-2.51v-3.68a2.52,2.52,0,0,0-2.52-2.51Z" fill="#ffffff" class="color000 svgShape"></path><path d="M250 383.52a2 2 0 01-2-2v-38a2 2 0 014 0v38A2 2 0 01250 383.52zM280.72 242.07a2 2 0 01-.39-4L351.54 224a2 2 0 11.78 3.92L281.11 242A1.72 1.72 0 01280.72 242.07z" fill="#ffffff" class="color000 svgShape"></path><path d="M280.72 242.07a2 2 0 01-2-2v-18a2 2 0 014 0v18A2 2 0 01280.72 242.07zM280.72 275.16a2 2 0 01-2-2V252.88a2 2 0 011.61-2l71.21-14.14a2 2 0 011.66.42 2 2 0 01.73 1.54V262a2 2 0 01-1.69 2L281 275.13A1.55 1.55 0 01280.72 275.16zm2-20.63v16.29l67.21-10.52V241.18zM148.07 227.93a2 2 0 01-2-2V198.72a2 2 0 114 0v27.21A2 2 0 01148.07 227.93z" fill="#ffffff" class="color000 svgShape"></path><path d="M219.28,242.07a1.72,1.72,0,0,1-.39,0l-71.21-14.14a2,2,0,1,1,.78-3.92l71.21,14.14a2,2,0,0,1-.39,4Z" fill="#ffffff" class="color000 svgShape"></path><path d="M219.28 242.07a2 2 0 01-2-2v-18a2 2 0 014 0v18A2 2 0 01219.28 242.07zM219.28 275.16a1.55 1.55 0 01-.31 0L147.76 264a2 2 0 01-1.69-2V238.74a2 2 0 012.39-2l71.21 14.14a2 2 0 011.61 2v20.28a2 2 0 01-2 2zM150.07 260.3l67.21 10.52V254.53l-67.21-13.35zM335.82 184a2 2 0 01-1.56-3.24l33.13-41.89a2 2 0 113.14 2.48l-33.14 41.89A2 2 0 01335.82 184zM164.18 184a2 2 0 01-1.57-.76l-33.14-41.89a2 2 0 013.14-2.48l33.13 41.89a2 2 0 01-1.56 3.24zM265.49 277.33h-31a2 2 0 010-4h29V245.82h-6.81a2 2 0 01-2-2v-20.1a1.93 1.93 0 01.17-.79l8.8-20.55a2 2 0 113.68 1.58l-8.65 20.17v17.69h4.44l.37-17.14a2 2 0 012-2h0a2 2 0 012 2v50.61A2 2 0 01265.49 277.33z" fill="#ffffff" class="color000 svgShape"></path><path d="M234.51,268.43a2,2,0,0,1-2-2V224.72a2,2,0,0,1,2-2,2,2,0,0,1,2,2l.37,17.14h4.43V224.13L232.67,204a2,2,0,1,1,3.68-1.58l8.8,20.55a1.92,1.92,0,0,1,.16.79v20.1a2,2,0,0,1-2,2h-6.8v20.61A2,2,0,0,1,234.51,268.43Z" fill="#ffffff" class="color000 svgShape"></path><path d="M234.51 226.72a2 2 0 01-.58-.08L130.46 195.51a2 2 0 111.15-3.83l103.48 31.13a2 2 0 01-.58 3.91zM282.36 299.7a2 2 0 01-.93-.23l-8.87-4.7a17 17 0 01-9.07-15.07v-4.37a2 2 0 114 0v4.37a13 13 0 006.94 11.54l8.87 4.7a2 2 0 01-.94 3.76z" fill="#ffffff" class="color000 svgShape"></path></svg></g></svg>